<?xml version="1.0" encoding="utf-8"?>
<!-- Generator: Adobe Illustrator 14.0.0, SVG Export Plug-In . SVG Version: 6.00 Build 43363)  -->
<!DOCTYPE svg PUBLIC "-//W3C//DTD SVG 1.1//EN" "http://www.w3.org/Graphics/SVG/1.1/DTD/svg11.dtd">
<svg version="1.1" id="Capa_1" xmlns="http://www.w3.org/2000/svg" xmlns:xlink="http://www.w3.org/1999/xlink" x="0px" y="0px"
	 width="4275.022px" height="1244.848px" viewBox="0 5274.842 4275.022 1244.848"
	 enable-background="new 0 5274.842 4275.022 1244.848" xml:space="preserve">
<g>
	<path fill="#FFFFFF" d="M316.041,5357.673l-45.623,155.203c30.699-0.427,51.166-1.706,60.546-3.838
		c14.924-2.984,28.567-9.38,40.933-19.187c12.365-9.808,22.599-23.451,31.126-40.933h11.938L368.06,5611.37H356.12
		c2.132-10.233,2.985-18.761,2.985-25.156c0-12.365-2.559-22.599-7.675-29.848c-5.117-7.248-11.939-12.791-19.614-15.35
		c-8.101-2.984-30.272-4.689-66.941-5.543l-36.669,128.768l-7.249,26.01c-0.853,5.116-1.705,9.807-1.705,14.923
		c0,7.249,1.279,12.792,4.264,16.629c2.559,4.264,7.249,7.249,13.218,9.381c5.97,2.132,17.481,3.411,34.964,3.837l-3.411,11.513
		H61.491l3.411-11.513c20.04,0,34.11-3.837,43.49-11.086c8.954-7.248,17.056-23.451,24.304-48.607l73.338-251.565
		c7.675-26.436,11.938-43.49,11.938-51.165c-0.426-7.249-3.411-13.219-9.807-17.908c-5.969-5.117-18.761-7.675-37.521-8.528
		l2.559-11.512h336.415l-27.289,109.153H471.67c-0.853-23.024-4.69-40.08-10.233-50.739c-5.969-10.659-15.35-19.188-28.993-25.583
		c-13.645-5.969-34.964-9.38-64.384-9.38h-52.019V5357.673z"/>
	<path fill="#FFFFFF" d="M626.447,5464.694l-62.252,215.749c-2.984,12.365-4.689,20.467-4.689,24.304
		c0,2.133,0.853,4.265,2.558,5.97c1.706,2.132,3.411,2.984,5.543,2.984c3.411,0,6.822-1.279,10.233-4.264
		c8.954-7.675,20.04-21.319,32.405-40.933l10.659,5.97c-30.699,53.298-63.104,80.159-97.642,80.159
		c-13.218,0-23.45-3.837-31.125-11.086c-7.676-7.248-11.513-16.629-11.513-28.141c0-7.675,1.705-17.056,5.116-28.568l42.212-144.97
		c3.838-13.644,5.97-24.304,5.97-31.552c0-4.264-2.132-8.527-5.97-11.938c-3.837-3.411-8.954-5.117-15.776-5.117
		c-2.984,0-6.822,0-10.659,0.427l3.411-11.938l103.185-16.629h18.334V5464.694z M607.686,5324.842
		c12.365,0,23.024,4.264,31.553,13.218c8.527,8.954,12.791,19.187,12.791,31.552s-4.264,23.024-13.218,31.553
		c-8.954,8.527-19.188,12.791-31.553,12.791c-11.938,0-22.598-4.264-31.126-12.791c-8.953-8.528-13.217-19.188-13.217-31.553
		s4.264-22.598,12.791-31.552C585.088,5329.105,595.321,5324.842,607.686,5324.842z"/>
	<path fill="#FFFFFF" d="M798.279,5464.694l-37.095,129.62c25.156-37.948,43.917-63.957,56.281-78.027
		c18.335-20.04,34.111-33.685,47.756-40.933c13.644-7.249,26.009-10.66,37.521-10.66c10.659,0,19.613,3.838,27.288,11.513
		c7.248,7.675,11.086,17.908,11.086,30.273c0,11.512-2.559,25.156-7.249,41.358l-38.801,129.62
		c-2.984,11.086-4.689,18.761-4.689,22.172c0,1.706,0.853,3.411,2.559,5.116c1.705,1.706,2.984,2.559,4.689,2.559
		c2.132,0,4.264-0.853,6.396-2.559c7.248-5.543,14.07-14.07,21.745-24.729c1.705-2.985,4.69-7.249,8.527-12.792l11.938,7.249
		c-29.42,50.313-60.546,75.47-93.804,75.47c-12.365,0-22.172-3.411-29.42-9.808c-7.249-6.396-10.66-14.923-10.66-24.729
		c0-8.528,2.559-20.893,7.249-37.521l37.947-129.62c2.559-8.528,3.838-14.497,3.838-18.761c0-2.559-0.853-4.264-2.559-5.97
		c-1.705-1.705-3.837-2.559-6.396-2.559c-7.675,0-17.056,5.117-28.142,15.776c-27.715,26.862-54.576,66.516-80.586,118.961
		l-25.156,89.966H641.37l56.282-194.856c5.543-19.187,8.527-32.831,8.527-40.933c0-3.411-0.853-6.396-2.559-8.954
		c-1.705-2.558-4.264-4.264-8.101-5.543c-3.838-1.278-10.66-1.705-20.467-1.705l2.985-11.938l102.331-17.481h17.908V5464.694z"/>
	<path fill="#FFFFFF" d="M1268.151,5468.532l-58.84,202.104l-6.822,24.73c-0.427,2.984-0.854,5.543-0.854,6.822
		c0,2.559,0.854,4.264,2.559,6.396c1.705,1.705,3.838,2.559,5.543,2.559c4.264,0,10.233-2.985,17.481-9.381
		c2.985-2.984,10.233-12.365,21.746-28.141l10.659,5.543c-14.07,26.436-29.42,45.622-45.623,57.562
		c-16.202,11.938-34.11,17.907-53.298,17.907c-11.512,0-20.466-2.984-26.436-8.953c-5.97-5.97-8.954-13.645-8.954-22.599
		c0-7.675,3.411-22.599,9.807-43.917l7.249-24.73c-23.451,40.08-45.623,69.074-67.368,85.703
		c-12.365,9.807-26.01,14.496-40.507,14.496c-18.761,0-31.979-7.675-40.079-23.024c-8.102-15.35-12.365-32.405-12.365-51.592
		c0-28.567,8.527-61.399,26.009-98.494c17.481-37.096,40.08-66.516,68.222-88.688c23.451-18.335,45.196-27.715,65.662-27.715
		c11.513,0,20.893,3.411,27.715,9.807s11.939,18.335,14.924,35.816l11.086-37.096L1268.151,5468.532z M1170.936,5526.094
		c0-16.202-2.559-28.142-7.675-35.39c-3.837-5.117-8.527-7.249-14.497-7.249c-6.396,0-12.791,2.985-19.613,8.954
		c-13.645,12.365-28.141,37.948-43.917,76.322c-15.776,38.375-23.451,71.206-23.451,99.348c0,10.659,1.705,18.334,5.116,23.024
		c3.411,4.689,7.249,7.248,11.513,7.248c9.38,0,18.761-5.116,27.715-15.776c13.218-14.923,25.156-33.258,35.815-55.003
		C1161.129,5590.051,1170.936,5555.94,1170.936,5526.094z"/>
	<path fill="#FFFFFF" d="M1438.703,5464.694l-37.095,129.62c25.156-37.948,43.917-63.957,56.282-78.027
		c18.334-20.04,34.11-33.685,47.755-40.933c13.644-7.249,26.009-10.66,37.521-10.66c10.659,0,19.613,3.838,27.288,11.513
		c7.248,7.675,11.086,17.908,11.086,30.273c0,11.512-2.559,25.156-7.248,41.358l-38.801,129.62
		c-2.985,11.086-4.69,18.761-4.69,22.172c0,1.706,0.853,3.411,2.558,5.116c1.706,1.706,2.985,2.559,4.69,2.559
		c2.132,0,4.265-0.853,6.396-2.559c7.249-5.543,14.071-14.07,21.746-24.729c1.705-2.985,4.69-7.249,8.527-12.792l11.939,7.249
		c-29.421,50.313-60.547,75.47-93.805,75.47c-12.365,0-22.172-3.411-29.42-9.808c-7.249-6.396-10.66-14.923-10.66-24.729
		c0-8.528,2.559-20.893,7.249-37.521l37.948-129.62c2.558-8.528,3.837-14.497,3.837-18.761c0-2.559-0.853-4.264-2.558-5.97
		c-1.706-1.705-3.838-2.559-6.396-2.559c-7.675,0-17.055,5.117-28.141,15.776c-27.715,26.862-54.577,66.516-80.586,118.961
		l-25.157,89.966h-77.175l56.282-194.856c5.543-19.187,8.528-32.831,8.528-40.933c0-3.411-0.854-6.396-2.559-8.954
		c-1.706-2.558-4.264-4.264-8.102-5.543c-3.838-1.278-10.659-1.705-20.467-1.705l2.985-11.938l102.331-17.481h17.908V5464.694z"/>
	<path fill="#FFFFFF" d="M1843.766,5672.343l8.954,8.527c-19.613,23.451-38.801,40.506-57.987,51.166
		c-25.157,14.497-51.166,21.745-78.455,21.745c-18.334,0-34.537-3.837-48.607-11.512s-24.304-18.761-31.125-32.832
		c-6.822-14.07-10.233-28.567-10.233-43.49c0-33.258,8.954-65.663,27.288-97.642s41.785-57.562,71.632-75.896
		c29.421-18.761,58.415-28.141,86.556-28.141c23.024,0,40.08,5.116,51.592,14.923c11.513,10.233,17.056,22.599,17.056,37.521
		c0,13.645-4.264,25.157-12.791,34.537c-8.528,9.381-18.335,14.071-28.994,14.071c-9.381,0-17.056-2.985-23.451-8.954
		c-5.97-5.97-9.38-13.218-9.38-21.746c0-10.659,5.543-20.04,16.629-28.567c7.248-5.543,11.086-10.233,11.086-14.497
		c0-3.837-1.279-6.396-4.265-8.527c-4.264-3.411-9.38-5.116-16.202-5.116c-16.629,0-32.831,6.821-47.755,20.893
		c-20.04,17.908-34.963,40.933-45.623,69.073c-10.659,28.142-15.776,54.577-15.776,79.733c0,20.04,5.543,35.816,16.203,47.328
		c10.659,11.939,23.451,17.482,38.374,17.482c12.792,0,26.862-3.411,41.785-9.807
		C1815.625,5696.22,1830.121,5685.986,1843.766,5672.343z"/>
	<path fill="#FFFFFF" d="M2036.49,5464.694l-62.252,215.749c-2.984,12.365-4.689,20.467-4.689,24.304
		c0,2.133,0.853,4.265,2.558,5.97c1.706,2.132,3.411,2.984,5.543,2.984c3.411,0,6.822-1.279,10.233-4.264
		c8.954-7.675,20.04-21.319,32.405-40.933l10.659,5.97c-30.699,53.298-63.104,80.159-97.642,80.159
		c-13.218,0-23.45-3.837-31.126-11.086c-7.674-7.248-11.512-16.629-11.512-28.141c0-7.675,1.705-17.056,5.116-28.568l42.212-144.97
		c3.838-13.644,5.97-24.304,5.97-31.552c0-4.264-2.132-8.527-5.97-11.938s-8.954-5.117-15.776-5.117c-2.984,0-6.821,0-10.659,0.427
		l3.411-11.938l103.185-16.629h18.334V5464.694z M2017.73,5324.842c12.365,0,23.024,4.264,31.979,13.218
		c8.528,8.954,12.792,19.187,12.792,31.552s-4.265,23.024-13.219,31.553c-8.953,8.527-19.187,12.791-31.552,12.791
		c-11.938,0-22.599-4.264-31.126-12.791c-8.954-8.528-13.218-19.188-13.218-31.553s4.264-22.598,12.792-31.552
		C1995.131,5329.105,2005.791,5324.842,2017.73,5324.842z"/>
	<path fill="#FFFFFF" d="M2140.102,5632.263c-2.133,13.218-2.985,23.877-2.985,31.979c0,15.35,4.264,27.715,13.218,36.669
		s20.467,13.645,35.39,13.645c14.497,0,28.567-3.411,43.064-10.233c14.07-6.822,30.699-18.761,49.46-35.816l8.954,8.102
		c-23.451,28.142-46.049,48.181-67.795,60.12c-22.172,11.938-46.476,17.907-72.911,17.907c-33.684,0-57.135-8.101-69.927-24.304
		c-12.791-16.202-19.187-34.963-19.187-56.282c0-33.258,9.807-66.089,28.993-99.347c19.188-33.258,45.623-59.693,78.881-79.733
		s66.516-29.847,99.773-29.847c17.056,0,30.272,3.838,38.801,11.938c8.527,8.102,12.791,17.908,12.791,30.273
		c0,14.923-4.264,29.42-12.791,43.491c-11.513,18.761-26.009,34.11-43.917,45.622c-17.908,11.513-37.948,20.467-60.12,26.862
		C2184.446,5627.146,2164.831,5630.131,2140.102,5632.263z M2142.659,5616.061c17.908-2.559,31.553-5.97,41.359-10.233
		c9.807-4.69,19.613-11.938,28.994-21.746c9.38-10.232,17.481-22.598,24.304-37.947s10.233-29.421,10.233-43.064
		c0-5.543-1.706-9.807-4.69-13.218s-7.248-4.69-11.938-4.69c-9.807,0-20.893,6.822-32.831,20.466
		C2175.917,5529.505,2157.583,5566.6,2142.659,5616.061z"/>
	<path fill="#FFFFFF" d="M2457.756,5464.694l-45.623,170.127c37.521-83.145,65.662-134.311,84.85-153.071
		c11.086-11.086,23.024-17.056,35.39-17.056c8.527,0,15.35,2.985,20.466,9.381c5.117,5.969,7.676,14.923,7.676,26.009
		c0,19.614-4.69,36.243-14.071,49.461c-5.97,8.527-12.791,12.791-20.04,12.791c-8.527,0-14.497-3.837-18.761-11.513
		c-4.264-7.675-6.821-11.938-8.527-13.218c-1.706-1.278-3.411-2.132-5.116-2.132c-1.706,0-3.838,0.854-6.396,2.132
		c-4.264,2.559-10.233,8.102-17.481,17.482c-7.249,9.38-16.202,25.156-26.436,47.328c-10.659,22.172-18.761,40.933-24.304,55.855
		c-5.97,15.351-14.07,44.344-24.73,87.408h-73.338l50.313-201.252c3.411-14.923,5.116-24.729,5.116-29.847
		c0-5.543-0.853-9.807-2.558-12.791c-1.706-2.984-4.264-5.117-7.675-6.822c-3.411-1.279-10.233-2.132-20.893-2.132l2.558-8.527
		l91.672-20.04h17.909V5464.694z"/>
	<path fill="#FFFFFF" d="M2842.352,5468.532l-58.841,201.679l-6.821,24.729c-0.427,2.985-0.854,5.543-0.854,6.822
		c0,2.559,0.854,4.264,2.984,6.396c1.706,1.706,3.838,2.559,5.543,2.559c4.264,0,10.234-2.984,17.482-9.38
		c2.984-2.985,10.232-12.365,21.745-28.142l10.659,5.543c-14.07,26.436-29.42,45.623-45.623,57.562
		c-16.202,11.938-34.11,17.908-53.297,17.908c-11.513,0-20.041-2.984-26.437-8.954c-5.969-5.97-8.954-13.645-8.954-22.599
		c0-7.675,3.412-22.598,9.808-43.917l7.248-24.73c-23.451,40.08-45.623,69.074-67.368,85.703
		c-12.365,9.807-26.009,14.497-40.506,14.497c-18.335,0-31.979-7.675-40.08-23.024c-8.102-15.351-12.365-32.405-12.365-51.593
		c0-28.567,8.527-61.398,26.009-98.494c17.481-37.095,40.08-66.516,68.222-88.688c23.451-18.334,45.196-27.715,65.236-27.715
		c11.512,0,20.893,3.411,27.715,9.807c6.822,6.396,11.938,18.335,14.923,35.816l11.086-37.095L2842.352,5468.532z
		 M2745.137,5526.094c0-16.202-2.559-28.142-7.675-35.39c-3.838-5.117-8.528-7.249-14.497-7.249c-6.396,0-12.791,2.985-19.613,8.954
		c-13.645,12.365-28.142,37.948-43.918,76.322c-15.775,38.375-23.451,71.206-23.451,99.348c0,10.659,1.706,18.334,5.117,23.024
		s7.248,7.248,11.513,7.248c9.38,0,18.761-5.116,27.715-15.776c13.218-14.923,25.156-33.258,35.815-55.003
		C2735.33,5590.051,2745.137,5555.94,2745.137,5526.094z"/>
</g>
<g>
	<path fill="#FFFFFF" d="M995.694,5940.963l-45.623,159.04h13.645c36.668,0,63.53-4.689,80.159-14.497
		c16.629-9.807,31.126-26.861,43.064-51.165h11.513l-46.05,160.319h-11.086c2.132-11.086,2.985-19.614,2.985-26.436
		c0-11.086-3.411-20.467-9.807-27.289c-6.396-6.821-15.35-11.938-25.583-14.923c-6.822-2.132-20.894-2.984-42.639-2.984h-23.877
		l-39.228,138.147c-3.411,11.938-5.116,20.893-5.116,26.861c0,4.69,2.132,8.528,6.822,11.086c6.396,4.265,18.334,6.396,36.669,6.396
		c34.537,0,66.941-7.249,97.641-21.746c30.7-14.497,57.988-36.669,81.865-66.089h12.365l-42.638,112.564H738.585l3.837-11.512
		c20.467,0,35.816-3.838,45.197-11.513c9.38-7.675,17.908-24.73,26.009-51.166l77.175-264.783
		c4.265-14.923,6.396-26.861,6.396-35.39c0-7.675-2.559-13.218-8.102-17.481c-5.543-3.837-17.908-6.822-37.096-8.527l2.559-11.513
		h328.314l-26.436,103.185h-11.086c-0.854-20.04-4.265-34.537-9.381-42.638c-8.527-13.219-20.04-22.599-34.11-28.568
		c-14.071-5.969-37.096-8.954-68.647-8.954h-37.521V5940.963z"/>
	<path fill="#FFFFFF" d="M1195.666,6066.745l105.742-17.907c19.188,29.847,32.832,63.104,40.933,99.772
		c20.04-29.42,34.964-50.313,45.196-61.825c13.219-15.775,24.305-26.009,33.258-30.699c8.954-4.69,18.335-7.248,27.715-7.248
		c11.513,0,20.04,2.984,26.01,8.953c5.969,5.97,8.954,14.071,8.954,24.305c0,9.807-2.985,17.907-8.954,24.304
		c-5.97,5.969-13.218,9.38-22.599,9.38c-6.396,0-14.07-1.279-22.172-3.411c-8.527-2.559-14.07-3.411-17.055-3.411
		c-8.528,0-17.056,2.984-24.73,8.954c-10.659,8.527-23.451,26.01-38.801,52.871c17.481,60.973,31.552,98.068,41.359,111.286
		c5.969,7.675,11.938,11.938,18.334,11.938c5.543,0,10.233-1.279,13.645-3.838c5.543-4.264,14.923-14.923,26.862-31.979
		l11.086,6.822c-17.908,28.567-35.391,49.034-52.445,60.547c-12.791,8.953-25.583,13.644-37.948,13.644
		c-13.218,0-23.877-2.984-32.405-8.527c-8.527-5.543-16.202-15.35-22.598-28.142c-6.822-13.218-14.497-34.11-24.304-63.104
		c-23.451,30.273-42.212,52.445-55.43,66.09c-13.645,14.07-24.729,23.024-33.685,27.288c-8.953,4.264-18.334,6.396-28.567,6.396
		s-18.761-2.984-24.729-9.38c-5.97-5.97-9.381-14.071-9.381-23.878c0-10.232,3.411-18.761,9.807-25.583
		c6.822-6.821,14.924-10.232,25.156-10.232c5.543,0,11.513,1.705,18.335,5.116c10.233,5.117,17.908,7.249,21.745,7.249
		c5.97,0,11.513-1.279,16.203-3.838c5.969-2.984,13.644-9.381,22.598-19.613c5.543-6.396,16.202-19.614,31.553-40.507
		c-19.188-72.058-34.537-114.696-45.197-128.767c-7.248-8.954-15.775-13.645-26.861-13.645c-5.117,0-11.939,0.853-20.04,2.559
		L1195.666,6066.745z"/>
	<path fill="#FFFFFF" d="M1507.778,6065.467l100.199-17.056h18.335l-14.071,49.46c21.319-19.187,38.801-32.404,52.445-39.227
		s26.862-10.233,40.506-10.233c19.188,0,33.685,7.248,43.918,21.745c10.232,14.497,15.35,32.405,15.35,53.725
		c0,57.988-20.467,109.58-60.547,154.35c-35.389,39.654-74.189,59.694-116.401,59.694c-7.249,0-13.645-0.854-18.761-2.133
		c-5.117-1.278-12.792-4.689-22.172-9.807l-15.776,55.004c-5.543,20.04-8.528,34.963-8.528,45.196c0,6.396,2.133,11.512,6.822,15.35
		c4.264,3.837,14.924,6.822,31.553,9.807l-2.559,11.086h-162.878l2.559-11.086c12.792-0.427,23.451-4.69,32.405-12.791
		c8.954-8.102,17.055-24.73,24.304-50.74l73.764-254.976c5.543-19.188,8.102-32.831,8.102-40.933c0-2.984-0.853-5.97-2.559-8.527
		c-1.705-2.559-3.837-4.265-7.249-5.117c-3.41-0.853-10.659-1.279-22.172-1.279L1507.778,6065.467z M1554.68,6298.271
		c6.396,10.233,11.938,17.056,16.629,20.04c4.689,3.411,10.659,4.69,17.055,4.69s12.791-1.705,19.188-5.116
		c5.969-3.411,13.645-10.66,22.598-21.319c8.954-10.66,17.908-24.304,26.436-41.359c8.528-17.055,15.35-35.815,20.04-57.135
		c5.117-21.319,7.249-41.785,7.249-60.973c0-15.776-2.559-27.288-8.102-34.11c-5.543-7.249-11.938-10.66-20.04-10.66
		c-7.248,0-14.07,2.132-20.04,5.97c-9.38,5.116-20.466,14.923-32.404,29.42L1554.68,6298.271z"/>
	<path fill="#FFFFFF" d="M1919.236,6048.411l-45.196,170.126c37.521-83.145,65.662-134.31,84.85-153.07
		c11.086-11.086,23.024-17.056,35.39-17.056c8.528,0,15.35,2.984,20.466,9.38c5.117,5.97,7.676,14.924,7.676,26.01
		c0,19.613-4.69,36.242-14.07,49.46c-5.97,8.528-12.792,12.792-20.041,12.792c-8.527,0-14.496-3.838-18.76-11.513
		c-4.265-7.675-6.822-11.938-8.528-13.218c-1.705-1.279-3.411-2.132-5.116-2.132c-1.706,0-3.838,0.853-6.396,2.132
		c-4.264,2.559-10.232,8.102-17.481,17.481c-7.248,9.381-16.202,25.157-26.436,47.329c-10.659,22.172-18.761,40.933-24.304,55.855
		c-5.969,15.35-14.07,44.344-24.73,87.408h-73.338l50.313-201.252c3.411-14.923,5.116-24.73,5.116-29.847
		c0-5.543-0.853-9.807-2.558-12.791c-1.706-2.985-4.264-5.117-7.675-6.822c-3.411-1.279-10.233-2.132-20.893-2.132l2.559-8.528
		l91.672-20.04h17.481V6048.411z"/>
	<path fill="#FFFFFF" d="M2103.433,6215.979c-2.132,13.218-2.985,23.877-2.985,31.979c0,15.35,4.264,27.715,13.218,36.669
		c8.954,8.953,20.467,13.644,35.39,13.644c14.497,0,28.568-3.411,43.064-10.232c14.07-6.822,30.699-18.762,49.461-35.816
		l8.953,8.102c-23.451,28.141-46.049,48.181-68.221,60.119s-46.476,17.908-72.911,17.908c-33.685,0-57.136-8.102-69.927-24.304
		s-19.613-34.963-19.613-56.282c0-33.258,9.807-66.089,28.994-99.347c19.187-33.258,45.622-59.693,78.88-79.733
		s66.516-29.847,100.2-29.847c17.055,0,30.272,3.837,38.801,11.938c8.527,8.102,12.791,17.908,12.791,30.273
		c0,14.923-4.264,29.42-12.791,43.49c-11.513,18.761-26.01,34.11-43.918,45.623s-37.947,20.466-60.119,26.862
		C2147.776,6210.862,2128.162,6213.847,2103.433,6215.979z M2105.99,6199.776c17.908-2.559,31.553-5.969,41.359-10.233
		c9.807-4.689,19.188-11.938,28.994-21.745c9.38-10.233,17.481-22.598,24.304-37.948c6.821-15.35,10.233-29.42,10.233-43.064
		c0-5.543-1.706-9.807-4.69-13.218s-7.249-4.69-11.938-4.69c-9.807,0-20.893,6.822-32.832,20.467
		C2139.675,6113.647,2120.914,6150.316,2105.99,6199.776z"/>
	<path fill="#FFFFFF" d="M2505.084,6048.411l-12.791,93.804h-11.513c-1.706-24.304-8.954-43.49-22.172-57.562
		c-13.218-14.07-27.289-20.893-42.212-20.893c-9.381,0-17.056,2.559-23.025,8.102c-5.969,5.543-8.953,11.938-8.953,19.613
		c0,6.396,1.279,12.792,3.837,18.335c2.559,5.543,8.528,13.218,17.481,22.598c31.979,34.537,51.166,58.414,58.415,71.206
		c6.821,12.791,10.233,26.862,10.233,41.785c0,15.776-4.265,31.126-12.365,45.196c-8.102,14.07-20.467,25.583-36.243,34.11
		c-16.202,8.528-32.831,12.792-49.887,12.792c-11.938,0-26.436-2.559-43.491-7.249c-11.085-3.411-19.613-5.116-25.582-5.116
		c-5.117,0-9.381,0.853-11.939,2.559c-2.984,1.705-5.969,4.689-9.38,9.807h-11.513l14.924-101.479h9.807
		c7.248,24.73,13.645,42.639,20.04,52.872c6.396,10.659,14.497,18.761,24.729,24.729c10.233,5.97,20.041,9.381,29.848,9.381
		c11.085,0,20.039-3.411,27.288-10.66c7.249-7.248,11.086-15.35,11.086-25.156c0-9.38-2.559-18.761-7.249-27.715
		c-4.689-8.954-15.775-23.024-32.831-41.785c-23.878-25.583-39.228-45.623-46.476-59.693c-5.117-9.807-7.675-21.319-7.675-34.11
		c0-21.746,8.101-40.08,23.877-54.577s37.948-21.745,66.516-21.745c12.365,0,28.142,2.132,46.476,6.396
		c8.954,2.559,16.202,3.411,21.745,3.411c7.675,0,14.071-3.411,19.188-9.807h9.808V6048.411z"/>
	<path fill="#FFFFFF" d="M2738.741,6048.411l-12.792,93.804h-11.512c-1.706-24.304-8.954-43.49-22.172-57.562
		c-13.219-14.07-27.289-20.893-42.213-20.893c-9.38,0-17.055,2.559-23.024,8.102s-8.954,11.938-8.954,19.613
		c0,6.396,1.279,12.792,3.838,18.335s8.527,13.218,17.481,22.598c31.979,34.537,51.166,58.414,58.415,71.206
		c6.821,12.791,10.232,26.862,10.232,41.785c0,15.776-4.264,31.126-12.365,45.196s-20.466,25.583-36.242,34.11
		c-16.202,8.528-32.831,12.792-49.887,12.792c-11.938,0-26.436-2.559-43.49-7.249c-11.086-3.411-19.614-5.116-25.584-5.116
		c-5.116,0-9.38,0.853-11.938,2.559c-2.984,1.705-5.969,4.689-9.38,9.807h-11.513l14.924-101.479h9.807
		c7.248,24.73,13.644,42.639,20.04,52.872c6.396,10.659,14.497,18.761,24.729,24.729c10.233,5.97,20.04,9.381,29.847,9.381
		c11.086,0,20.04-3.411,27.289-10.66c7.248-7.248,11.086-15.35,11.086-25.156c0-9.38-2.559-18.761-7.249-27.715
		s-15.776-23.024-32.831-41.785c-23.877-25.583-39.228-45.623-46.476-59.693c-5.117-9.807-7.675-21.319-7.675-34.11
		c0-21.746,8.102-40.08,23.877-54.577c15.776-14.497,37.948-21.745,66.516-21.745c12.365,0,28.141,2.132,46.476,6.396
		c8.954,2.559,16.202,3.411,21.745,3.411c7.675,0,14.07-3.411,19.188-9.807h9.808V6048.411z"/>
</g>
<g id="Forma_1">
	<g>
		<path fill="#FFFFFF" d="M3655.108,5937.215c-145.254,0-262.991,119.565-262.991,267.063s117.737,267.063,262.991,267.063
			c145.279,0,263.045-119.566,263.045-267.063S3800.387,5937.215,3655.108,5937.215z M3655.108,6422.775
			c-109.487,0-198.257-92.393-198.257-206.369c0-113.979,88.77-206.369,198.257-206.369c109.514,0,198.282,92.39,198.282,206.369
			C3853.39,6330.383,3764.621,6422.775,3655.108,6422.775z"/>
	</g>
</g>
<g id="Forma_1_copia">
	<g>
		<path fill="#FFFFFF" d="M3814.79,5600.307c-197.751,0-358.05,162.768-358.05,363.522c0,39.136,6.117,76.779,17.347,112.096
			c150.782-205.468,492.241-39.945,395.806,247.159c171.562-26.921,302.888-177.508,302.888-359.255
			C4172.781,5763.074,4012.507,5600.307,3814.79,5600.307z M3895.131,6248.605c34.194-213.694-176.832-335.981-350.242-268.242
			c0-155.134,120.831-280.902,269.901-280.902c149.04,0,269.896,125.769,269.896,280.902
			C4084.687,6106.385,4004.928,6213.01,3895.131,6248.605z"/>
	</g>
</g>
<g id="Forma_1_copia_2">
	<g>
		<path fill="#FFFFFF" d="M3524.678,5308.903c-252.073,0-456.392,207.465-456.392,463.38c0,216.478,146.179,398.308,343.79,449.204
			c14.286-60.61,41.182-117.124,75.714-169.228c23.017-371.187,234.972-387.834,369.501-384.605
			c55.98,1.319,98.537-5.615,108.532-14.515C3914.029,5454.941,3736.127,5308.903,3524.678,5308.903z M3476.727,6012.957
			c-11.454,44.244-34.249,69.707-43.876,125.601c-145.45-41.829-252.243-180.539-252.243-345.19
			c0-197.776,154.069-358.104,344.07-358.104c144.241,0,267.764,92.418,318.856,223.436
			C3732.365,5636.325,3485.206,5641.069,3476.727,6012.957z"/>
	</g>
</g>
</svg>
